<svg width="14" height="14" viewBox="0 0 14 14" fill="none" xmlns="http://www.w3.org/2000/svg">
<g clip-path="url(#clip0_1_351)">
<path d="M9.77661 2.08301C9.32804 1.65137 8.8033 1.32129 8.20239 1.09277C7.60148 0.864258 6.96248 0.75 6.2854 0.75C5.76912 0.75 5.30363 0.79655 4.88892 0.889648C4.46574 0.991211 4.08911 1.11605 3.75903 1.26416C3.42896 1.41227 3.13696 1.57943 2.88306 1.76562C2.63761 1.95182 2.42603 2.13379 2.24829 2.31152C1.81665 2.75163 1.48234 3.24886 1.24536 3.80322C1.00838 4.35758 0.889893 4.92253 0.889893 5.49805C0.889893 6.22591 1.03166 6.85221 1.31519 7.37695C1.59871 7.90169 1.99438 8.26562 2.5022 8.46875C2.53605 8.48568 2.56991 8.49837 2.60376 8.50684C2.63761 8.5153 2.67147 8.51953 2.70532 8.51953C2.81535 8.51953 2.90845 8.48568 2.98462 8.41797C3.06079 8.35026 3.1158 8.26139 3.14966 8.15137C3.16659 8.08366 3.19198 7.98633 3.22583 7.85938C3.25968 7.73242 3.28507 7.63509 3.302 7.56738C3.33586 7.43197 3.34009 7.32194 3.3147 7.2373C3.28931 7.15267 3.23429 7.0638 3.14966 6.9707C3.00578 6.80143 2.89787 6.611 2.82593 6.39941C2.75399 6.18783 2.71802 5.94661 2.71802 5.67578C2.71802 5.28646 2.78996 4.89714 2.93384 4.50781C3.08618 4.11003 3.30412 3.75667 3.58765 3.44775C3.87118 3.13883 4.2203 2.89128 4.63501 2.70508C5.05819 2.51042 5.54484 2.41309 6.09497 2.41309C6.52661 2.41309 6.91593 2.47233 7.26294 2.59082C7.60994 2.70931 7.90405 2.8807 8.14526 3.10498C8.38647 3.32926 8.57479 3.59798 8.71021 3.91113C8.83716 4.23275 8.90063 4.59245 8.90063 4.99023C8.90063 5.48958 8.84985 5.96354 8.74829 6.41211C8.64673 6.86068 8.49438 7.25846 8.29126 7.60547C8.15584 7.84245 7.96753 8.0752 7.72632 8.30371C7.48511 8.53223 7.1783 8.64648 6.80591 8.64648C6.6451 8.64648 6.49699 8.61475 6.36157 8.55127C6.22616 8.48779 6.1119 8.39681 6.0188 8.27832C5.93416 8.17676 5.87915 8.05827 5.85376 7.92285C5.82837 7.78744 5.8326 7.64779 5.86646 7.50391C5.90877 7.33464 5.95321 7.16536 5.99976 6.99609C6.04631 6.82682 6.09497 6.66178 6.14575 6.50098C6.23885 6.19629 6.32349 5.9043 6.39966 5.625C6.47583 5.3457 6.51392 5.09603 6.51392 4.87598C6.51392 4.48665 6.40389 4.17139 6.18384 3.93018C5.96379 3.68896 5.67603 3.56836 5.32056 3.56836C4.87199 3.56836 4.49113 3.77148 4.17798 4.17773C3.86483 4.58398 3.70825 5.0791 3.70825 5.66309C3.70825 5.95085 3.73787 6.19629 3.79712 6.39941C3.85636 6.60254 3.90291 6.74642 3.93677 6.83105C3.90291 6.94954 3.84367 7.19499 3.75903 7.56738C3.6744 7.93978 3.5813 8.33756 3.47974 8.76074C3.37817 9.18392 3.28507 9.58171 3.20044 9.9541C3.10734 10.335 3.04386 10.5931 3.01001 10.7285C2.99308 10.8047 2.95923 10.9951 2.90845 11.2998C2.86613 11.6045 2.83651 11.9282 2.81958 12.271C2.80265 12.6138 2.81958 12.9333 2.87036 13.2295C2.92961 13.5173 3.05233 13.6865 3.23853 13.7373C3.44165 13.7881 3.64054 13.7035 3.83521 13.4834C4.0214 13.2549 4.19067 12.9883 4.34302 12.6836C4.49536 12.3789 4.61808 12.0827 4.71118 11.7949C4.80428 11.5072 4.86353 11.3252 4.88892 11.249C4.91431 11.139 4.97144 10.9126 5.0603 10.5698C5.14917 10.2271 5.22746 9.92448 5.29517 9.66211C5.48983 9.85677 5.7395 10.0155 6.04419 10.1382C6.34888 10.2609 6.6578 10.3223 6.97095 10.3223C7.5634 10.3223 8.11776 10.1911 8.63403 9.92871C9.15031 9.66634 9.59465 9.29395 9.96704 8.81152C10.331 8.34603 10.6103 7.7959 10.8049 7.16113C10.9996 6.52637 11.0969 5.84928 11.0969 5.12988C11.0969 4.56283 10.9827 4.01481 10.7542 3.48584C10.5256 2.95687 10.1998 2.48926 9.77661 2.08301Z" fill="#1F1E17"/>
</g>
<defs>
<clipPath id="clip0_1_351">
<rect width="13" height="13" fill="white" transform="matrix(1 0 0 -1 0.889893 13.75)"/>
</clipPath>
</defs>
</svg>
