<svg width="11" height="13" viewBox="0 0 11 13" fill="none" xmlns="http://www.w3.org/2000/svg">
<g clip-path="url(#clip0_1_329)">
<path d="M9.45315 5.46951H6.24074V2.25763C6.24074 1.86351 5.92106 1.54388 5.52687 1.54388H4.813C4.41881 1.54388 4.09913 1.86351 4.09913 2.25763V5.46951H0.88672C0.492531 5.46951 0.172852 5.78914 0.172852 6.18326V6.89701C0.172852 7.29113 0.492531 7.61076 0.88672 7.61076H4.09913V10.8226C4.09913 11.2168 4.41881 11.5364 4.813 11.5364H5.52687C5.92106 11.5364 6.24074 11.2168 6.24074 10.8226V7.61076H9.45315C9.84733 7.61076 10.167 7.29113 10.167 6.89701V6.18326C10.167 5.78914 9.84733 5.46951 9.45315 5.46951Z" fill="#101010"/>
</g>
<defs>
<clipPath id="clip0_1_329">
<rect width="10" height="11.42" fill="white" transform="translate(0.169922 0.830017)"/>
</clipPath>
</defs>
</svg>
