<svg width="15" height="15" viewBox="0 0 15 15" fill="none" xmlns="http://www.w3.org/2000/svg">
<g id="Icon" clip-path="url(#clip0_1_135)">
<path id="Vector" d="M14.0625 7.5C14.0625 8.34766 13.9167 9.14974 13.625 9.90625C13.3333 10.6628 12.93 11.3372 12.415 11.9297C11.9001 12.5221 11.2962 13.0189 10.6035 13.4199C9.90169 13.8118 9.14974 14.0716 8.34766 14.1992V9.45508H9.91992L10.2207 7.5H8.34766V6.22852C8.34766 5.95508 8.42513 5.70898 8.58008 5.49023C8.73503 5.27148 9.02214 5.16211 9.44141 5.16211H10.3027V3.49414C10.3027 3.49414 10.1432 3.47363 9.82422 3.43262C9.50521 3.3916 9.15885 3.37109 8.78516 3.37109C8.01042 3.37109 7.38835 3.59668 6.91895 4.04785C6.44954 4.49902 6.21484 5.153 6.21484 6.00977V7.5H4.49219V9.45508H6.21484V14.1992C5.41276 14.0716 4.66081 13.8118 3.95898 13.4199C3.26628 13.0189 2.66243 12.5221 2.14746 11.9297C1.63249 11.3372 1.22917 10.6628 0.9375 9.90625C0.645833 9.14974 0.5 8.34766 0.5 7.5C0.5 6.5612 0.677734 5.68164 1.0332 4.86133C1.38867 4.04102 1.87402 3.32324 2.48926 2.70801C3.10449 2.09277 3.82227 1.60742 4.64258 1.25195C5.46289 0.896484 6.34245 0.71875 7.28125 0.71875C8.22005 0.71875 9.09961 0.896484 9.91992 1.25195C10.7402 1.60742 11.458 2.09277 12.0732 2.70801C12.6885 3.32324 13.1738 4.04102 13.5293 4.86133C13.8848 5.68164 14.0625 6.5612 14.0625 7.5Z" fill="white"/>
</g>
<defs>
<clipPath id="clip0_1_135">
<rect width="14" height="14" fill="white" transform="matrix(1 0 0 -1 0.5 14.5)"/>
</clipPath>
</defs>
</svg>
