<svg width="17" height="14" viewBox="0 0 17 14" fill="none" xmlns="http://www.w3.org/2000/svg">
<g clip-path="url(#clip0_1_345)">
<path d="M16.4424 2.28613C16.1631 2.41309 15.8669 2.521 15.5537 2.60986C15.2406 2.69873 14.9189 2.76432 14.5889 2.80664H14.5508C14.8893 2.60352 15.1834 2.34749 15.4331 2.03857C15.6828 1.72966 15.8669 1.389 15.9854 1.0166L15.998 0.991211C15.6934 1.16895 15.3696 1.32552 15.0269 1.46094C14.6841 1.59635 14.3265 1.70215 13.9541 1.77832L13.9033 1.79102C13.6071 1.4694 13.2537 1.2155 12.8433 1.0293C12.4328 0.843099 11.9906 0.75 11.5166 0.75C11.0596 0.75 10.6322 0.834636 10.2344 1.00391C9.83659 1.18164 9.48958 1.41862 9.19336 1.71484C8.89714 2.01107 8.66016 2.35807 8.48242 2.75586C8.31315 3.15365 8.22852 3.58105 8.22852 4.03809C8.22852 4.1735 8.23698 4.30469 8.25391 4.43164C8.27083 4.55859 8.29199 4.68132 8.31738 4.7998V4.77441C7.63184 4.74056 6.97168 4.639 6.33691 4.46973C5.69369 4.29199 5.08643 4.05501 4.51514 3.75879C3.94385 3.46257 3.40853 3.11556 2.90918 2.71777C2.41829 2.31152 1.96973 1.86296 1.56348 1.37207L1.55078 1.34668C1.4069 1.58366 1.29688 1.8418 1.2207 2.12109C1.14453 2.40039 1.10645 2.69238 1.10645 2.99707C1.10645 3.56413 1.23763 4.08675 1.5 4.56494C1.76237 5.04313 2.11361 5.43034 2.55371 5.72656H2.56641C2.28711 5.7181 2.02262 5.6779 1.77295 5.60596C1.52327 5.53402 1.28418 5.43457 1.05566 5.30762L1.08105 5.32031V5.3584C1.08105 5.75619 1.14453 6.13281 1.27148 6.48828C1.4069 6.84375 1.59098 7.16325 1.82373 7.44678C2.05648 7.73031 2.33366 7.9694 2.65527 8.16406C2.96842 8.35872 3.3112 8.49837 3.68359 8.58301H3.70898C3.58203 8.61686 3.4445 8.64437 3.29639 8.66553C3.14827 8.68669 2.99805 8.69727 2.8457 8.69727C2.73568 8.69727 2.62777 8.69092 2.52197 8.67822C2.41618 8.66553 2.3125 8.65072 2.21094 8.63379H2.22363C2.33366 8.96387 2.49023 9.26855 2.69336 9.54785C2.88802 9.81868 3.11865 10.0557 3.38525 10.2588C3.65186 10.4619 3.94596 10.6185 4.26758 10.7285C4.58919 10.847 4.93197 10.9105 5.2959 10.9189C5.0166 11.139 4.72038 11.3337 4.40723 11.5029C4.09408 11.6722 3.76611 11.8182 3.42334 11.9409C3.08057 12.0636 2.72721 12.1589 2.36328 12.2266C1.99089 12.2858 1.61426 12.3154 1.2334 12.3154C1.22493 12.3154 1.2207 12.3154 1.2207 12.3154C1.07682 12.3154 0.937174 12.3112 0.801758 12.3027C0.666341 12.2943 0.530924 12.2816 0.395508 12.2646L0.433594 12.2773C0.789062 12.5059 1.16146 12.7132 1.55078 12.8994C1.94857 13.0771 2.35905 13.2295 2.78223 13.3564C3.2054 13.4834 3.64128 13.5807 4.08984 13.6484C4.53841 13.7161 4.99544 13.75 5.46094 13.75C6.97591 13.75 8.31315 13.4665 9.47266 12.8994C10.6322 12.3324 11.6076 11.6003 12.3989 10.7031C13.1903 9.80599 13.7891 8.80306 14.1953 7.69434C14.6016 6.58561 14.8047 5.48958 14.8047 4.40625L14.792 3.9873C15.1221 3.75033 15.4225 3.49219 15.6934 3.21289C15.9642 2.93359 16.2054 2.63314 16.417 2.31152L16.4424 2.28613Z" fill="#1F1E17"/>
</g>
<defs>
<clipPath id="clip0_1_345">
<rect width="16.02" height="13" fill="white" transform="matrix(1 0 0 -1 0.389893 13.75)"/>
</clipPath>
</defs>
</svg>
