<svg width="15" height="15" viewBox="0 0 15 15" fill="none" xmlns="http://www.w3.org/2000/svg">
<g id="Icon" clip-path="url(#clip0_1_141)">
<path id="Vector" d="M6.625 4.35547C7.0625 4.35547 7.47266 4.4375 7.85547 4.60156C8.23828 4.76562 8.57096 4.98893 8.85352 5.27148C9.13607 5.55404 9.35938 5.88672 9.52344 6.26953C9.6875 6.65234 9.76953 7.0625 9.76953 7.5C9.76953 7.92839 9.6875 8.33398 9.52344 8.7168C9.35938 9.09961 9.13607 9.43457 8.85352 9.72168C8.57096 10.0088 8.23828 10.2344 7.85547 10.3984C7.47266 10.5625 7.0625 10.6445 6.625 10.6445C6.19661 10.6445 5.79102 10.5625 5.4082 10.3984C5.02539 10.2344 4.69043 10.0088 4.40332 9.72168C4.11621 9.43457 3.89062 9.09961 3.72656 8.7168C3.5625 8.33398 3.48047 7.92839 3.48047 7.5C3.48047 7.0625 3.5625 6.65234 3.72656 6.26953C3.89062 5.88672 4.11621 5.55404 4.40332 5.27148C4.69043 4.98893 5.02539 4.76562 5.4082 4.60156C5.79102 4.4375 6.19661 4.35547 6.625 4.35547ZM6.625 9.53711C7.1901 9.53711 7.67318 9.33887 8.07422 8.94238C8.47526 8.5459 8.67578 8.0651 8.67578 7.5C8.67578 6.9349 8.47526 6.45182 8.07422 6.05078C7.67318 5.64974 7.1901 5.44922 6.625 5.44922C6.0599 5.44922 5.5791 5.64974 5.18262 6.05078C4.78613 6.45182 4.58789 6.9349 4.58789 7.5C4.58789 8.0651 4.78841 8.5459 5.18945 8.94238C5.59049 9.33887 6.06901 9.53711 6.625 9.53711ZM10.6309 4.23242C10.6309 4.43294 10.5602 4.60384 10.4189 4.74512C10.2777 4.88639 10.1022 4.95703 9.89258 4.95703C9.69206 4.95703 9.52116 4.88639 9.37988 4.74512C9.23861 4.60384 9.16797 4.43294 9.16797 4.23242C9.16797 4.02279 9.23861 3.84733 9.37988 3.70605C9.52116 3.56478 9.69206 3.49414 9.89258 3.49414C10.1022 3.49414 10.2777 3.56478 10.4189 3.70605C10.5602 3.84733 10.6309 4.02279 10.6309 4.23242ZM12.709 4.9707C12.7272 5.22591 12.7409 5.58594 12.75 6.05078C12.75 6.50651 12.75 6.9873 12.75 7.49316C12.75 7.99902 12.75 8.48438 12.75 8.94922C12.7409 9.41406 12.7272 9.77409 12.709 10.0293C12.6908 10.5124 12.611 10.9704 12.4697 11.4033C12.3285 11.8363 12.0801 12.2305 11.7246 12.5859C11.3691 12.9505 10.9749 13.2012 10.542 13.3379C10.109 13.4746 9.64648 13.5566 9.1543 13.584C8.89909 13.5931 8.53906 13.6022 8.07422 13.6113C7.61849 13.6204 7.1377 13.625 6.63184 13.625C6.12598 13.625 5.64062 13.6204 5.17578 13.6113C4.71094 13.6022 4.35091 13.5931 4.0957 13.584C3.60352 13.5566 3.14323 13.4746 2.71484 13.3379C2.28646 13.2012 1.88997 12.9505 1.52539 12.5859C1.16992 12.2305 0.923828 11.8363 0.787109 11.4033C0.650391 10.9704 0.568359 10.5124 0.541016 10.0293C0.522786 9.77409 0.513672 9.41406 0.513672 8.94922C0.504557 8.48438 0.5 7.99902 0.5 7.49316C0.5 6.9873 0.504557 6.50195 0.513672 6.03711C0.513672 5.58138 0.522786 5.22591 0.541016 4.9707C0.568359 4.47852 0.650391 4.01595 0.787109 3.58301C0.923828 3.15007 1.16992 2.75586 1.52539 2.40039C1.88997 2.04492 2.28874 1.79655 2.72168 1.65527C3.15462 1.514 3.61263 1.43425 4.0957 1.41602C4.35091 1.39779 4.71094 1.38411 5.17578 1.375C5.64062 1.375 6.12598 1.375 6.63184 1.375C7.1377 1.375 7.61849 1.375 8.07422 1.375C8.53906 1.38411 8.89909 1.39779 9.1543 1.41602C9.64648 1.44336 10.109 1.52539 10.542 1.66211C10.9749 1.79883 11.3691 2.04492 11.7246 2.40039C12.0801 2.76497 12.3285 3.16146 12.4697 3.58984C12.611 4.01823 12.6908 4.47852 12.709 4.9707ZM11.4102 11.1094C11.4831 10.9089 11.5378 10.6491 11.5742 10.3301C11.6107 10.0111 11.6357 9.67839 11.6494 9.33203C11.6631 8.98568 11.6654 8.64844 11.6562 8.32031C11.6562 7.99219 11.6562 7.71875 11.6562 7.5C11.6562 7.27214 11.6562 6.99414 11.6562 6.66602C11.6654 6.33789 11.6631 6.00065 11.6494 5.6543C11.6357 5.30794 11.6107 4.97982 11.5742 4.66992C11.5378 4.35091 11.4831 4.09115 11.4102 3.89062C11.3008 3.61719 11.1458 3.38021 10.9453 3.17969C10.7448 2.97917 10.5078 2.82422 10.2344 2.71484C10.0339 2.64193 9.77409 2.58724 9.45508 2.55078C9.14518 2.51432 8.81706 2.48926 8.4707 2.47559C8.12435 2.46191 7.78711 2.45964 7.45898 2.46875C7.13086 2.46875 6.85286 2.46875 6.625 2.46875C6.40625 2.46875 6.13281 2.46875 5.80469 2.46875C5.47656 2.45964 5.13932 2.46191 4.79297 2.47559C4.44661 2.48926 4.11393 2.51432 3.79492 2.55078C3.47591 2.58724 3.21615 2.64193 3.01562 2.71484C2.74219 2.82422 2.50521 2.97917 2.30469 3.17969C2.10417 3.38021 1.95378 3.61719 1.85352 3.89062C1.77148 4.09115 1.71224 4.35091 1.67578 4.66992C1.63932 4.97982 1.61654 5.30794 1.60742 5.6543C1.59831 6.00065 1.59375 6.33789 1.59375 6.66602C1.60286 6.99414 1.60742 7.27214 1.60742 7.5C1.60742 7.71875 1.60286 7.99219 1.59375 8.32031C1.59375 8.64844 1.59831 8.98568 1.60742 9.33203C1.61654 9.67839 1.63932 10.0111 1.67578 10.3301C1.71224 10.6491 1.77148 10.9089 1.85352 11.1094C1.96289 11.3828 2.11784 11.6175 2.31836 11.8135C2.51888 12.0094 2.7513 12.1621 3.01562 12.2715C3.21615 12.3535 3.47591 12.4128 3.79492 12.4492C4.11393 12.4857 4.44661 12.5085 4.79297 12.5176C5.13932 12.5267 5.47656 12.5312 5.80469 12.5312C6.13281 12.5221 6.40625 12.5176 6.625 12.5176C6.85286 12.5176 7.13086 12.5221 7.45898 12.5312C7.78711 12.5312 8.12435 12.5267 8.4707 12.5176C8.81706 12.5085 9.14518 12.4857 9.45508 12.4492C9.77409 12.4128 10.0339 12.3535 10.2344 12.2715C10.5078 12.1621 10.7448 12.0072 10.9453 11.8066C11.1458 11.6061 11.3008 11.3737 11.4102 11.1094Z" fill="white"/>
</g>
<defs>
<clipPath id="clip0_1_141">
<rect width="14" height="14" fill="white" transform="matrix(1 0 0 -1 0.5 14.5)"/>
</clipPath>
</defs>
</svg>
