<svg width="7" height="39" viewBox="0 0 7 39" fill="none" xmlns="http://www.w3.org/2000/svg">
<g id="List &#226;&#134;&#146; Item &#226;&#134;&#146; Link" clip-path="url(#clip0_1_34)">
<path id="Vector" d="M5.78906 20.082L1.99023 23.8809C1.89909 23.972 1.78841 24.0176 1.6582 24.0176C1.52799 24.0176 1.41732 23.972 1.32617 23.8809L0.886719 23.4316C0.795573 23.3405 0.75 23.2314 0.75 23.1045C0.75 22.9775 0.795573 22.8652 0.886719 22.7676L3.89453 19.75L0.886719 16.7324C0.795573 16.6348 0.75 16.5225 0.75 16.3955C0.75 16.2686 0.795573 16.1595 0.886719 16.0684L1.32617 15.6191C1.41732 15.528 1.52799 15.4824 1.6582 15.4824C1.78841 15.4824 1.89909 15.528 1.99023 15.6191L5.78906 19.418C5.88021 19.5091 5.92578 19.6198 5.92578 19.75C5.92578 19.8802 5.88021 19.9909 5.78906 20.082Z" fill="#878680"/>
</g>
<defs>
<clipPath id="clip0_1_34">
<rect width="6.25" height="38" fill="white" transform="matrix(1 0 0 -1 0.75 38.75)"/>
</clipPath>
</defs>
</svg>
