<svg width="17" height="16" viewBox="0 0 17 16" fill="none" xmlns="http://www.w3.org/2000/svg">
<g id="Icon" clip-path="url(#clip0_1_205)">
<path id="Vector" d="M6.47998 0C5.65706 0 4.88102 0.15625 4.15186 0.46875C3.42269 0.78125 2.78467 1.21094 2.23779 1.75781C1.69092 2.30469 1.26123 2.94271 0.94873 3.67188C0.63623 4.40104 0.47998 5.17708 0.47998 6C0.47998 7.10417 0.771647 8.23438 1.35498 9.39062C1.9279 10.5365 2.56852 11.5833 3.27686 12.5312C3.98519 13.4792 4.64144 14.2656 5.24561 14.8906C5.86019 15.5156 6.19352 15.8542 6.24561 15.9062C6.27686 15.9375 6.31331 15.9609 6.35498 15.9766C6.39665 15.9922 6.43831 16 6.47998 16C6.52165 16 6.56331 15.9922 6.60498 15.9766C6.64665 15.9609 6.68311 15.9375 6.71436 15.9062C6.76644 15.8542 7.09977 15.5156 7.71436 14.8906C8.31852 14.2656 8.97477 13.4792 9.68311 12.5312C10.3914 11.5833 11.0321 10.5365 11.605 9.39062C12.1883 8.23438 12.48 7.10417 12.48 6C12.48 5.17708 12.3237 4.40104 12.0112 3.67188C11.6987 2.94271 11.269 2.30469 10.7222 1.75781C10.1753 1.21094 9.53727 0.78125 8.80811 0.46875C8.07894 0.15625 7.3029 0 6.47998 0ZM6.47998 9.32812C6.02165 9.32812 5.58936 9.24479 5.18311 9.07812C4.77686 8.90104 4.42269 8.66146 4.12061 8.35938C3.81852 8.05729 3.57894 7.70312 3.40186 7.29688C3.23519 6.89062 3.15186 6.45833 3.15186 6C3.15186 5.54167 3.23519 5.10938 3.40186 4.70312C3.57894 4.29688 3.81852 3.94271 4.12061 3.64062C4.42269 3.33854 4.77686 3.09896 5.18311 2.92188C5.58936 2.75521 6.02165 2.67188 6.47998 2.67188C6.93831 2.67188 7.37061 2.75521 7.77686 2.92188C8.18311 3.09896 8.53727 3.33854 8.83936 3.64062C9.14144 3.94271 9.38102 4.29688 9.55811 4.70312C9.72477 5.10938 9.80811 5.54167 9.80811 6C9.80811 6.45833 9.72477 6.89062 9.55811 7.29688C9.38102 7.70312 9.14144 8.05729 8.83936 8.35938C8.53727 8.66146 8.18311 8.90104 7.77686 9.07812C7.37061 9.24479 6.93831 9.32812 6.47998 9.32812Z" fill="#EEC044"/>
</g>
<defs>
<clipPath id="clip0_1_205">
<rect width="16" height="16" fill="white" transform="matrix(1 0 0 -1 0.47998 16)"/>
</clipPath>
</defs>
</svg>
