<svg width="11" height="15" viewBox="0 0 11 15" fill="none" xmlns="http://www.w3.org/2000/svg">
<g id="Icon" clip-path="url(#clip0_1_138)">
<path id="Vector" d="M5.82812 0.677734C6.47526 0.677734 7.09505 0.782552 7.6875 0.992188C8.27995 1.21094 8.80176 1.51628 9.25293 1.9082C9.7041 2.30013 10.0664 2.76953 10.3398 3.31641C10.6133 3.8724 10.75 4.48763 10.75 5.16211C10.75 5.80013 10.668 6.43815 10.5039 7.07617C10.3398 7.72331 10.0846 8.30208 9.73828 8.8125C9.39193 9.32292 8.95443 9.74219 8.42578 10.0703C7.89714 10.3893 7.26823 10.5488 6.53906 10.5488C6.19271 10.5488 5.83268 10.4645 5.45898 10.2959C5.08529 10.1273 4.81641 9.88346 4.65234 9.56445C4.33333 10.7949 4.09863 11.654 3.94824 12.1416C3.79785 12.6292 3.38086 13.3424 2.69727 14.2812C2.62435 14.3086 2.58561 14.3223 2.58105 14.3223C2.5765 14.3223 2.55143 14.2949 2.50586 14.2402C2.47852 13.985 2.45117 13.7298 2.42383 13.4746C2.39648 13.2194 2.38281 12.9642 2.38281 12.709C2.38281 12.2897 2.42383 11.8294 2.50586 11.3281C2.58789 10.8359 2.69043 10.3346 2.81348 9.82422C2.93652 9.3138 3.06185 8.81706 3.18945 8.33398C3.32617 7.8418 3.4401 7.39062 3.53125 6.98047C3.43099 6.77083 3.36263 6.54525 3.32617 6.30371C3.28971 6.06217 3.27148 5.82747 3.27148 5.59961C3.27148 5.05273 3.40365 4.62435 3.66797 4.31445C3.93229 4.00456 4.22624 3.81543 4.5498 3.74707C4.87337 3.67871 5.16732 3.74023 5.43164 3.93164C5.70508 4.12305 5.8418 4.44206 5.8418 4.88867C5.8418 5.42643 5.72103 5.94824 5.47949 6.4541C5.23796 6.95996 5.11719 7.47266 5.11719 7.99219C5.11719 8.34766 5.24251 8.63704 5.49316 8.86035C5.74381 9.08366 6.03776 9.19531 6.375 9.19531C6.84896 9.19531 7.24544 9.04492 7.56445 8.74414C7.87435 8.44336 8.125 8.07878 8.31641 7.65039C8.50781 7.22201 8.64453 6.76628 8.72656 6.2832C8.80859 5.80013 8.84961 5.3763 8.84961 5.01172C8.84961 4.52865 8.76758 4.10026 8.60352 3.72656C8.43945 3.35286 8.21387 3.03841 7.92676 2.7832C7.63965 2.528 7.29557 2.33659 6.89453 2.20898C6.5026 2.08138 6.07422 2.01758 5.60938 2.01758C5.0625 2.01758 4.55664 2.10872 4.0918 2.29102C3.62695 2.47331 3.22135 2.73079 2.875 3.06348C2.52865 3.39616 2.25977 3.79492 2.06836 4.25977C1.86784 4.7155 1.76758 5.22135 1.76758 5.77734C1.76758 6.30599 1.87467 6.71387 2.08887 7.00098C2.30306 7.28809 2.41016 7.49544 2.41016 7.62305C2.41016 7.73242 2.3737 7.92155 2.30078 8.19043C2.22786 8.45931 2.12305 8.59375 1.98633 8.59375C1.6582 8.59375 1.28678 8.33171 0.87207 7.80762C0.457357 7.28353 0.25 6.53841 0.25 5.57227C0.25 4.81575 0.409505 4.13672 0.728516 3.53516C1.04753 2.92448 1.4668 2.4095 1.98633 1.99023C2.50586 1.57096 3.10286 1.2474 3.77734 1.01953C4.44271 0.791667 5.1263 0.677734 5.82812 0.677734Z" fill="white"/>
</g>
<defs>
<clipPath id="clip0_1_138">
<rect width="10.5" height="14" fill="white" transform="matrix(1 0 0 -1 0.25 14.5)"/>
</clipPath>
</defs>
</svg>
