<svg width="15" height="18" viewBox="0 0 15 18" fill="none" xmlns="http://www.w3.org/2000/svg">
<g id="Icon" clip-path="url(#clip0_1_197)">
<path id="Vector" d="M14.5652 12.4629C14.5652 12.6387 14.53 12.873 14.4597 13.166C14.3894 13.459 14.3191 13.6875 14.2487 13.8516C14.1081 14.1914 13.698 14.5488 13.0183 14.9238C12.3855 15.2637 11.7644 15.4336 11.155 15.4336C10.9675 15.4336 10.7917 15.4219 10.6277 15.3984C10.4519 15.375 10.2585 15.334 10.0476 15.2754C9.83664 15.2051 9.67844 15.1523 9.57297 15.1172C9.4675 15.082 9.28 15.0176 9.01047 14.9238C8.74094 14.8184 8.57687 14.7539 8.51828 14.7305C7.86203 14.4961 7.27609 14.2207 6.76047 13.9043C5.91672 13.377 5.03195 12.6504 4.10617 11.7246C3.19211 10.8105 2.47141 9.93164 1.94406 9.08789C1.61594 8.57227 1.33469 7.98633 1.10031 7.33008C1.08859 7.25977 1.03 7.0957 0.92453 6.83789C0.83078 6.56836 0.760468 6.38086 0.713593 6.27539C0.678436 6.16992 0.631561 6.01172 0.572968 5.80078C0.514374 5.58984 0.473358 5.39648 0.449921 5.2207C0.426483 5.04492 0.414764 4.86914 0.414764 4.69336C0.414764 4.07227 0.584686 3.45117 0.92453 2.83008C1.29953 2.15039 1.65695 1.74023 1.9968 1.59961C2.16086 1.5293 2.38937 1.45898 2.68234 1.38867C2.97531 1.31836 3.20969 1.2832 3.38547 1.2832C3.47922 1.2832 3.54953 1.29492 3.59641 1.31836C3.71359 1.35352 3.88937 1.60547 4.12375 2.07422C4.20578 2.20312 4.31125 2.38477 4.44016 2.61914C4.55734 2.85352 4.67453 3.06445 4.79172 3.25195C4.89719 3.45117 4.9968 3.63281 5.09055 3.79688C5.11398 3.82031 5.17258 3.90234 5.26633 4.04297C5.3718 4.18359 5.44797 4.30664 5.49484 4.41211C5.54172 4.50586 5.56516 4.59961 5.56516 4.69336C5.56516 4.82227 5.46555 4.98633 5.26633 5.18555C5.07883 5.39648 4.87375 5.58398 4.65109 5.74805C4.42844 5.91211 4.2175 6.08789 4.01828 6.27539C3.83078 6.46289 3.73703 6.61523 3.73703 6.73242C3.73703 6.80273 3.75461 6.87891 3.78976 6.96094C3.82492 7.05469 3.85422 7.125 3.87766 7.17188C3.90109 7.21875 3.94797 7.30078 4.01828 7.41797C4.08859 7.52344 4.12375 7.58789 4.12375 7.61133C4.63937 8.52539 5.22531 9.31055 5.88156 9.9668C6.53781 10.623 7.32297 11.2031 8.23703 11.707C8.24875 11.7188 8.3132 11.7598 8.43039 11.8301C8.54758 11.9004 8.62961 11.9473 8.67648 11.9707C8.72336 11.9941 8.78781 12.0234 8.86984 12.0586C8.96359 12.0938 9.03976 12.1113 9.09836 12.1113C9.22726 12.1113 9.38547 12.0117 9.57297 11.8125C9.76047 11.625 9.93625 11.4199 10.1003 11.1973C10.2644 10.9746 10.446 10.7637 10.6452 10.5645C10.8445 10.377 11.0144 10.2832 11.155 10.2832C11.2487 10.2832 11.3425 10.3066 11.4362 10.3535C11.53 10.4004 11.6472 10.4707 11.7878 10.5645C11.9284 10.6699 12.0163 10.7285 12.0515 10.7402C12.2155 10.8457 12.3913 10.9512 12.5788 11.0566C12.778 11.1621 12.9948 11.2793 13.2292 11.4082C13.4636 11.5371 13.6394 11.6367 13.7566 11.707C14.2253 11.9414 14.4831 12.123 14.53 12.252C14.5534 12.2988 14.5652 12.3691 14.5652 12.4629Z" fill="#EEC044"/>
</g>
<defs>
<clipPath id="clip0_1_197">
<rect width="14.16" height="18" fill="white" transform="matrix(1 0 0 -1 0.409973 18)"/>
</clipPath>
</defs>
</svg>
