<svg width="13" height="13" viewBox="0 0 13 13" fill="none" xmlns="http://www.w3.org/2000/svg">
<g id="Icon" clip-path="url(#clip0_1_213)">
<path id="Vector" d="M12.3006 0.789024C12.371 0.835932 12.4218 0.896521 12.4531 0.970791C12.4843 1.04506 12.4922 1.12519 12.4765 1.21119L10.7644 11.5073C10.7566 11.5699 10.7331 11.6266 10.694 11.6774C10.655 11.7282 10.6081 11.7732 10.5533 11.8122C10.5221 11.8279 10.4888 11.8396 10.4536 11.8474C10.4185 11.8552 10.3813 11.8592 10.3422 11.8592C10.3188 11.8592 10.2934 11.8572 10.266 11.8533C10.2387 11.8494 10.2093 11.8396 10.1781 11.824L7.15255 10.5927L5.52252 12.5628C5.48343 12.6175 5.43457 12.6566 5.37593 12.68C5.3173 12.7035 5.25671 12.7152 5.19417 12.7152C5.17071 12.7152 5.14726 12.7133 5.12381 12.7093C5.10035 12.7054 5.0769 12.6996 5.05344 12.6918C4.96745 12.6605 4.89904 12.6077 4.84822 12.5334C4.79741 12.4592 4.772 12.379 4.772 12.293V9.94768L10.5533 2.85295L3.39996 9.05644L0.749698 7.96584C0.671519 7.93457 0.608976 7.88571 0.562068 7.81926C0.515161 7.75281 0.487798 7.68049 0.47998 7.60231C0.47998 7.51632 0.497571 7.43814 0.532751 7.36778C0.567932 7.29741 0.620702 7.24269 0.691063 7.2036L11.8433 0.765571C11.8745 0.749935 11.9097 0.736254 11.9488 0.724527C11.9879 0.7128 12.0231 0.706937 12.0544 0.706937C12.1013 0.706937 12.1462 0.714755 12.1892 0.730391C12.2322 0.746026 12.2694 0.765571 12.3006 0.789024Z" fill="white"/>
</g>
<defs>
<clipPath id="clip0_1_213">
<rect width="12.02" height="13" fill="white" transform="matrix(1 0 0 -1 0.47998 13)"/>
</clipPath>
</defs>
</svg>
