<svg width="15" height="14" viewBox="0 0 15 14" fill="none" xmlns="http://www.w3.org/2000/svg">
<g id="Icon" clip-path="url(#clip0_1_201)">
<path id="Vector" d="M14.2202 5.22266C14.2658 5.17708 14.3205 5.17025 14.3843 5.20215C14.4481 5.23405 14.48 5.2819 14.48 5.3457V10.9375C14.48 11.3021 14.3524 11.612 14.0972 11.8672C13.842 12.1224 13.5321 12.25 13.1675 12.25H1.79248C1.4279 12.25 1.118 12.1224 0.862793 11.8672C0.607585 11.612 0.47998 11.3021 0.47998 10.9375V5.3457C0.47998 5.2819 0.509603 5.23405 0.568848 5.20215C0.628092 5.17025 0.685059 5.17708 0.739746 5.22266C1.04964 5.45964 1.48258 5.7832 2.03857 6.19336C2.59456 6.60352 3.56982 7.31445 4.96436 8.32617C5.24691 8.53581 5.61605 8.80697 6.07178 9.13965C6.52751 9.47233 6.99691 9.63411 7.47998 9.625C7.97217 9.63411 8.44613 9.47005 8.90186 9.13281C9.35758 8.79557 9.72673 8.52669 10.0093 8.32617C11.4038 7.31445 12.3768 6.60352 12.9282 6.19336C13.4797 5.7832 13.9103 5.45964 14.2202 5.22266ZM7.47998 8.75C7.16097 8.75911 6.80322 8.61328 6.40674 8.3125C6.01025 8.01172 5.69808 7.7793 5.47021 7.61523C3.65641 6.30273 2.51709 5.47103 2.05225 5.12012C1.5874 4.76921 1.14535 4.42969 0.726074 4.10156C0.653158 4.03776 0.593913 3.96029 0.54834 3.86914C0.502767 3.778 0.47998 3.68229 0.47998 3.58203V3.0625C0.47998 2.69792 0.607585 2.38802 0.862793 2.13281C1.118 1.8776 1.4279 1.75 1.79248 1.75H13.1675C13.5321 1.75 13.842 1.8776 14.0972 2.13281C14.3524 2.38802 14.48 2.69792 14.48 3.0625V3.58203C14.48 3.68229 14.4572 3.778 14.4116 3.86914C14.366 3.96029 14.3068 4.03776 14.2339 4.10156C13.8146 4.42969 13.3726 4.76921 12.9077 5.12012C12.4429 5.47103 11.3035 6.30273 9.48975 7.61523C9.26188 7.7793 8.94971 8.01172 8.55322 8.3125C8.15674 8.61328 7.79899 8.75911 7.47998 8.75Z" fill="#EEC044"/>
</g>
<defs>
<clipPath id="clip0_1_201">
<rect width="14" height="14" fill="white" transform="matrix(1 0 0 -1 0.47998 14)"/>
</clipPath>
</defs>
</svg>
