<svg width="15" height="15" viewBox="0 0 15 15" fill="none" xmlns="http://www.w3.org/2000/svg">
<g id="Icon" clip-path="url(#clip0_1_132)">
<path id="Vector" d="M13.0645 4.64258C13.0645 4.70638 13.0645 4.77018 13.0645 4.83398C13.0645 4.89779 13.0645 4.96159 13.0645 5.02539C13.0645 5.97331 12.8867 6.93034 12.5312 7.89648C12.1758 8.86263 11.654 9.73763 10.9658 10.5215C10.2777 11.3053 9.42318 11.9479 8.40234 12.4492C7.39062 12.9414 6.22396 13.1875 4.90234 13.1875C4.5013 13.1875 4.10482 13.1602 3.71289 13.1055C3.32096 13.0417 2.94043 12.9551 2.57129 12.8457C2.20215 12.7363 1.8444 12.6042 1.49805 12.4492C1.15169 12.2852 0.81901 12.1029 0.5 11.9023C0.61849 11.9115 0.734701 11.9183 0.848633 11.9229C0.962565 11.9274 1.07878 11.9297 1.19727 11.9297C1.86263 11.9297 2.49837 11.8226 3.10449 11.6084C3.71061 11.3942 4.25977 11.0957 4.75195 10.7129C4.12305 10.6947 3.56478 10.4987 3.07715 10.125C2.58952 9.7513 2.25456 9.2819 2.07227 8.7168C2.16341 8.72591 2.25228 8.73503 2.33887 8.74414C2.42546 8.75326 2.51888 8.75781 2.61914 8.75781C2.74674 8.75781 2.87435 8.75098 3.00195 8.7373C3.12956 8.72363 3.2526 8.69857 3.37109 8.66211C2.71484 8.52539 2.16797 8.19727 1.73047 7.67773C1.29297 7.1582 1.07422 6.54753 1.07422 5.8457V5.81836C1.26562 5.91862 1.4707 6.00065 1.68945 6.06445C1.9082 6.12826 2.13151 6.16471 2.35938 6.17383C1.97656 5.91862 1.66895 5.58138 1.43652 5.16211C1.2041 4.74284 1.08789 4.28255 1.08789 3.78125C1.08789 3.51693 1.12207 3.264 1.19043 3.02246C1.25879 2.78092 1.35221 2.55534 1.4707 2.3457C1.82617 2.77409 2.22266 3.16602 2.66016 3.52148C3.09766 3.87695 3.56706 4.18457 4.06836 4.44434C4.56966 4.7041 5.10286 4.91146 5.66797 5.06641C6.22396 5.22135 6.79818 5.3125 7.39062 5.33984C7.3724 5.23047 7.35645 5.12109 7.34277 5.01172C7.3291 4.90234 7.32227 4.79297 7.32227 4.68359C7.32227 4.29167 7.39518 3.91797 7.54102 3.5625C7.69596 3.21615 7.90332 2.91309 8.16309 2.65332C8.42285 2.39355 8.72591 2.19075 9.07227 2.04492C9.41862 1.88997 9.79232 1.8125 10.1934 1.8125C10.6035 1.8125 10.9886 1.89453 11.3486 2.05859C11.7087 2.22266 12.0208 2.44141 12.2852 2.71484C12.6133 2.66016 12.93 2.57357 13.2354 2.45508C13.5407 2.33659 13.8301 2.19531 14.1035 2.03125C14.0033 2.35938 13.8438 2.66016 13.625 2.93359C13.4062 3.20703 13.1465 3.43034 12.8457 3.60352C13.1374 3.57617 13.4222 3.52376 13.7002 3.44629C13.9782 3.36882 14.2448 3.27539 14.5 3.16602C14.3086 3.44857 14.0898 3.71517 13.8438 3.96582C13.5977 4.21647 13.3379 4.44206 13.0645 4.64258Z" fill="white"/>
</g>
<defs>
<clipPath id="clip0_1_132">
<rect width="14" height="14" fill="white" transform="matrix(1 0 0 -1 0.5 14.5)"/>
</clipPath>
</defs>
</svg>
